<svg width="24" height="25" viewBox="0 0 24 25" fill="none" xmlns="http://www.w3.org/2000/svg">
<path d="M13.5 20V12C13.5 11.0572 13.5 10.5858 13.2071 10.2929C12.9142 10 12.4428 10 11.5 10C10.5572 10 10.0858 10 9.79289 10.2929C9.5 10.5858 9.5 11.0572 9.5 12V20C9.5 20.9428 9.5 21.4142 9.79289 21.7071C10.0858 22 10.5572 22 11.5 22C12.4428 22 12.9142 22 13.2071 21.7071C13.5 21.4142 13.5 20.9428 13.5 20Z" stroke="#141B34" stroke-width="1.5" stroke-linecap="round" stroke-linejoin="round"/>
<path d="M20.5 13V20C20.5 20.9428 20.5 21.4142 20.2071 21.7071C19.9142 22 19.4428 22 18.5 22C17.5572 22 17.0858 22 16.7929 21.7071C16.5 21.4142 16.5 20.9428 16.5 20V13" stroke="#141B34" stroke-width="1.5" stroke-linecap="round" stroke-linejoin="round"/>
<path d="M6.5 20V15C6.5 14.0572 6.5 13.5858 6.20711 13.2929C5.91421 13 5.44281 13 4.5 13C3.55719 13 3.08579 13 2.79289 13.2929C2.5 13.5858 2.5 14.0572 2.5 15V20C2.5 20.9428 2.5 21.4142 2.79289 21.7071C3.08579 22 3.55719 22 4.5 22C5.44281 22 5.91421 22 6.20711 21.7071C6.5 21.4142 6.5 20.9428 6.5 20Z" stroke="#141B34" stroke-width="1.5" stroke-linecap="round" stroke-linejoin="round"/>
</svg>
