<svg width="53" height="53" viewBox="0 0 53 53" fill="none" xmlns="http://www.w3.org/2000/svg">
<path d="M52.5 26.101C52.5 39.2826 42.7319 50.1802 30.0422 51.9486C28.8557 52.1132 27.6418 52.1991 26.4096 52.1991C24.9872 52.1991 23.5905 52.0857 22.2303 51.8663C9.8057 49.8656 0.317261 39.0906 0.317261 26.101C0.317261 11.6867 11.9996 0.000976562 26.4077 0.000976562C40.8159 0.000976562 52.5 11.6867 52.5 26.101Z" fill="#1877F2"/>
<path d="M30.0423 20.9566V26.6422H37.0736L35.9602 34.301H30.0423L30.0423 51.9467C28.8557 52.1113 27.6418 52.1972 26.4096 52.1972C24.9872 52.1972 23.5905 52.0838 22.2303 51.8644L22.2303 34.301H15.7456V26.6422H22.2303V19.6856C22.2303 15.3697 25.7277 11.8695 30.0441 11.8695V11.8732C30.0569 11.8732 30.0679 11.8695 30.0807 11.8695H37.0754V18.4933H32.5049C31.1465 18.4933 30.0441 19.596 30.0441 20.9548L30.0423 20.9566Z" fill="white"/>
</svg>
