<svg width="24" height="25" viewBox="0 0 24 25" fill="none" xmlns="http://www.w3.org/2000/svg">
<path d="M8.99947 22.5L8.74884 18.9911C8.61409 17.1046 10.1082 15.5 11.9995 15.5C13.8908 15.5 15.3849 17.1046 15.2501 18.9911L14.9995 22.5" stroke="#141B34" stroke-width="1.5"/>
<path d="M2.35154 13.7135C1.99852 11.4162 1.82201 10.2676 2.25632 9.24938C2.69062 8.23112 3.65418 7.53443 5.58129 6.14106L7.02114 5.1C9.41844 3.36667 10.6171 2.5 12.0002 2.5C13.3832 2.5 14.5819 3.36667 16.9792 5.1L18.419 6.14106C20.3461 7.53443 21.3097 8.23112 21.744 9.24938C22.1783 10.2676 22.0018 11.4162 21.6488 13.7135L21.3477 15.6724C20.8473 18.9289 20.5971 20.5572 19.4292 21.5286C18.2612 22.5 16.5538 22.5 13.139 22.5H10.8613C7.44649 22.5 5.73906 22.5 4.57115 21.5286C3.40324 20.5572 3.15302 18.9289 2.65258 15.6724L2.35154 13.7135Z" stroke="#141B34" stroke-width="1.5" stroke-linejoin="round"/>
</svg>
