<svg width="53" height="53" viewBox="0 0 53 53" fill="none" xmlns="http://www.w3.org/2000/svg">
<path d="M26.6508 0.000976562L26.532 0.000976562C12.1549 0.000976562 0.5 11.6593 0.5 26.0406V26.1595C0.5 40.5408 12.1549 52.1991 26.532 52.1991H26.6508C41.0279 52.1991 52.6828 40.5408 52.6828 26.1595V26.0406C52.6828 11.6593 41.0279 0.000976562 26.6508 0.000976562Z" fill="url(#paint0_linear_1012_570)"/>
<path d="M34.6657 10.6206L18.5189 10.6206C14.058 10.6206 10.429 14.2507 10.429 18.7128L10.429 33.4892C10.429 37.9513 14.058 41.5814 18.5189 41.5814H34.6657C39.1265 41.5814 42.7555 37.9513 42.7555 33.4892V18.7128C42.7555 14.2507 39.1265 10.6206 34.6657 10.6206ZM13.2829 18.7128C13.2829 15.8252 15.6321 13.4753 18.5189 13.4753L34.6657 13.4753C37.5524 13.4753 39.9017 15.8252 39.9017 18.7128V33.4892C39.9017 36.3768 37.5524 38.7267 34.6657 38.7267H18.5189C15.6321 38.7267 13.2829 36.3768 13.2829 33.4892L13.2829 18.7128Z" fill="white"/>
<path d="M26.5923 33.6263C30.7405 33.6263 34.1172 30.2505 34.1172 26.0992C34.1172 21.9479 30.7423 18.572 26.5923 18.572C22.4422 18.572 19.0673 21.9479 19.0673 26.0992C19.0673 30.2505 22.4422 33.6263 26.5923 33.6263ZM26.5923 21.4285C29.1682 21.4285 31.2634 23.5243 31.2634 26.101C31.2634 28.6777 29.1682 30.7735 26.5923 30.7735C24.0163 30.7735 21.9212 28.6777 21.9212 26.101C21.9212 23.5243 24.0163 21.4285 26.5923 21.4285Z" fill="white"/>
<path d="M34.8137 19.7881C35.9308 19.7881 36.8412 18.8792 36.8412 17.76C36.8412 16.6408 35.9326 15.7319 34.8137 15.7319C33.6949 15.7319 32.7863 16.6408 32.7863 17.76C32.7863 18.8792 33.6949 19.7881 34.8137 19.7881Z" fill="white"/>
<defs>
<linearGradient id="paint0_linear_1012_570" x1="8.12366" y1="44.5732" x2="45.07" y2="7.63959" gradientUnits="userSpaceOnUse">
<stop stop-color="#FAAD4F"/>
<stop offset="0.35" stop-color="#DD2A7B"/>
<stop offset="0.62" stop-color="#9537B0"/>
<stop offset="1" stop-color="#515BD4"/>
</linearGradient>
</defs>
</svg>
