<svg width="53" height="53" viewBox="0 0 53 53" fill="none" xmlns="http://www.w3.org/2000/svg">
<path d="M52.7727 26.1C52.7727 11.6854 41.0919 0 26.6827 0C12.2736 0 0.592712 11.6854 0.592712 26.1C0.592712 40.5146 12.2736 52.2 26.6827 52.2C41.0919 52.2 52.7727 40.5146 52.7727 26.1Z" fill="#FF0209"/>
<path d="M37.7578 37.6599C36.9805 37.7443 36.1849 37.759 35.4222 37.7571C29.4731 37.7516 23.5239 37.7461 17.5766 37.7424C15.7048 37.7424 13.6662 37.6819 12.2197 36.4916C10.5898 35.1473 10.2507 32.8163 10.1187 30.7071C9.93535 27.8167 9.92068 24.9171 10.071 22.0249C10.1535 20.4366 10.2983 18.8098 10.9822 17.3719C11.4735 16.3394 12.293 15.4114 13.3417 14.9235C14.5608 14.3568 15.8368 14.4577 17.1495 14.4558C20.2918 14.4522 23.4341 14.4503 26.5764 14.4467C29.8434 14.443 33.1122 14.4412 36.3792 14.4375C37.9228 14.4375 39.5802 14.4687 40.8397 15.3618C42.4658 16.5136 42.9076 18.7053 43.1111 20.6879C43.487 24.3394 43.4925 28.0295 43.1258 31.681C42.9737 33.1867 42.7206 34.7787 41.7288 35.9213C40.7461 37.0547 39.2887 37.4912 37.7597 37.6581L37.7578 37.6599Z" fill="white"/>
<path d="M32.003 26.1L23.1371 20.9794V31.2206L32.003 26.1Z" fill="#FF0209"/>
</svg>
